<svg id="Layer_1" data-name="Layer 1" xmlns="http://www.w3.org/2000/svg" viewBox="0 0 512 486.849">
  <defs>
    <style>
      .cls-1 {
        fill: #f75b5b;
      }
    </style>
  </defs>
  <title>313d0035-6cbe-4e4d-b48d-56fe1fd0f156</title>
  <g>
    <path class="cls-1" d="M505.025,6.974C490.337-7.712,460.88.667,412.318,33.35,371.064,61.116,321.58,103.17,272.981,151.768c-72.047,72.046-126.823,142.784-145.061,186.458a63.48,63.48,0,0,0-9.327-2.593c-18.872-3.733-39.369,1.04-56.238,13.085C38.149,366,31.738,390.69,30.807,394.851A134.686,134.686,0,0,1,2.886,447.379a11.954,11.954,0,0,0,1.09,16.691c16.927,15.17,38.58,22.779,61.1,22.779,21.706,0,44.22-7.069,64.077-21.249a128.623,128.623,0,0,0,17.725-15.456c16.872-18.131,24.036-41.9,20.482-63.625,42.85-15.361,117.553-72.181,192.871-147.5,48.6-48.6,90.652-98.083,118.417-139.336C511.332,51.12,519.713,21.662,505.025,6.974ZM241.2,313.109l-42.3-42.3c7.31-9.41,15.219-19.157,23.648-29.127l47.806,47.806Q255.174,302.3,241.2,313.109ZM129.392,433.84a104.271,104.271,0,0,1-14.13,12.3c-27.732,19.8-61.684,22.09-86.345,6.845A157.881,157.881,0,0,0,53.98,400.733h0q.082-.312.149-.63a58.262,58.262,0,0,1,22.119-31.927c11.53-8.235,25.277-11.547,37.711-9.089a36.667,36.667,0,0,1,24.275,16.48C148.829,392.442,145.1,416.956,129.392,433.84Zm19.2-82.992c5.819-15.558,18.346-36.584,35.806-60.729l37.455,37.455c-26.349,18.967-47.94,31.33-62.636,36.513A44.447,44.447,0,0,0,148.593,350.848ZM455.159,91.691c-26.926,38.916-66.643,85.235-111.832,130.422-18.973,18.973-37.367,36.232-54.844,51.694L238.225,223.55c15.94-18.032,33.32-36.538,51.661-54.877,45.188-45.189,91.507-84.9,130.422-111.833,47.916-33.155,64.45-33.208,67.626-32.774C488.371,27.237,488.313,43.777,455.159,91.691Z"/>
    <path class="cls-1" d="M119.256,401.544a11.954,11.954,0,0,0-16.236,4.708,8.6,8.6,0,0,1-1.158,1.626,57.024,57.024,0,0,1-6.884,5.95,45.238,45.238,0,0,1-14.85,7.041A11.954,11.954,0,1,0,86.178,444a69.063,69.063,0,0,0,22.693-10.714,110.814,110.814,0,0,0,10.512-9.14,32.49,32.49,0,0,0,4.583-6.366A11.952,11.952,0,0,0,119.256,401.544Z"/>
  </g>
</svg>
