<svg id="Layer_1" data-name="Layer 1" xmlns="http://www.w3.org/2000/svg" viewBox="0 0 204.8 204.8">
  <defs>
    <style>
      .cls-1 {
        fill: #f75b5b;
      }
    </style>
  </defs>
  <title>a8574fab-105d-4475-a807-e31198b3aab8</title>
  <path class="cls-1" d="M0,199.2c2.936-11.847,6.581-23.574,8.62-35.574,2.3-13.559,8.552-23.851,18.458-33.508,38.8-37.824,76.9-76.373,115.1-114.814C149.36,8.078,156.93,1.954,167.2,0H176c5.06,2.2,10.479,3.824,15.1,6.722,7.986,5.006,11.459,13.266,13.7,22.078v8.8c-1.947,10.287-8.116,17.838-15.341,25.023Q126.871,124.867,64.615,187.446a18.69,18.69,0,0,1-9.5,5.315C39.312,196.375,23.552,200.2,7.78,203.967a17.345,17.345,0,0,0-2.18.833H0Zm28.206-58.285c5.645-.4,10.554-.73,15.08-5.352C68.19,110.132,93.5,85.1,118.671,59.928c.848-.848,1.695-1.7,2.561-2.528,1.788-1.71,3.779-2.186,5.627-.3,1.887,1.93,1.162,3.886-.514,5.623-.74.767-1.5,1.518-2.252,2.272-24.887,24.888-49.5,50.062-74.836,74.479-7.229,6.966-5.627,14.925-7.2,23.241,5-.5,9.223-1,13.456-1.327a10.885,10.885,0,0,0,7.235-3.535Q101.379,119,140.188,80.323c.847-.847,1.614-2.156,2.615-2.382,1.587-.358,4.009-.617,4.836.258.844.892.538,3.306.074,4.856-.338,1.13-1.739,1.949-2.681,2.891-25.357,25.36-50.6,50.838-76.183,75.965-4.507,4.427-4.627,9.23-4.793,14.118L165.019,75.158,129.5,39.636Zm7.971,6.768c-3.228.36-5.727.615-8.22.921-8.171,1-8.2,1-10.055,8.754-2.424,10.152-4.789,20.319-6.965,29.567,2.466-.215,5.5-1.44,7.011-.418,3.437,2.321.254,4.923-1.508,7.708,12.772-3.022,24.9-5.87,37.012-8.811a2.825,2.825,0,0,0,1.872-1.671c.688-4.915,1.174-9.858,1.76-15.125-4.879.552-8.98.943-13.059,1.491-9.658,1.3-10.607.369-9.348-9.16C35.23,156.754,35.631,152.547,36.177,147.683ZM156.821,12.261,192.5,47.891c7.331-9.186,6.351-23.557-2.556-32.695A25.418,25.418,0,0,0,156.821,12.261Zm29.95,42.493L150.332,18.222l-4.058,4.152,36.338,36.278Zm-15.03,14.561,3.933-3.861L139.66,29.437l-4.084,3.7Z"/>
</svg>
