<svg id="Layer_1" data-name="Layer 1" xmlns="http://www.w3.org/2000/svg" xmlns:xlink="http://www.w3.org/1999/xlink" viewBox="0 0 512 481">
  <defs>
    <style>
      .cls-1 {
        fill: none;
      }

      .cls-2 {
        clip-path: url(#clip-path);
      }

      .cls-3 {
        fill: #f75b5b;
      }
    </style>
    <clipPath id="clip-path">
      <rect class="cls-1" width="512" height="481"/>
    </clipPath>
  </defs>
  <title>d00e7800-3a7d-4504-a934-382e2037d780</title>
  <g id="Artwork_3" data-name="Artwork 3">
    <g class="cls-2">
      <path class="cls-3" d="M195.382,421.157H316.707v28.6H195.382ZM31.206,331.244H480.617v58.423H31.206Zm0-300H480.617V299.663H31.2ZM0,0V421H163.705v28.874H134V481H378V450.227H348.384V421H512V0Z"/>
      <g class="cls-2">
        <path class="cls-3" d="M204.557,219.066,182.613,240.96l-74.892-74.9L183.6,90.126c6.221,6.228,12.784,12.8,19.345,19.369,2.445,2.449.186,3.827-1.276,5.292q-16.942,16.994-33.939,33.934c-5.652,5.618-11.41,11.132-17.017,16.593l53.845,53.752"/>
        <path class="cls-3" d="M328.815,240.973l-20.646-20.561,53.8-53.659c-1.995-2.138-3.174-3.478-4.433-4.738-15.545-15.564-31.013-31.206-46.729-46.6-3.218-3.151-3.067-4.964.1-7.922,6.067-5.672,11.741-11.765,17.178-17.279l75.747,75.745-75.014,75.01"/>
        <path class="cls-3" d="M253.725,257.073l-30.515-6.249c11.708-58.833,23.315-117.16,35.057-176.16l30.523,5.965L253.725,257.073"/>
      </g>
    </g>
  </g>
</svg>
